<?xml version="1.0" standalone="no"?>
<!DOCTYPE svg PUBLIC "-//W3C//DTD SVG 20010904//EN"
 "http://www.w3.org/TR/2001/REC-SVG-20010904/DTD/svg10.dtd">
<svg version="1.0" xmlns="http://www.w3.org/2000/svg"
 width="300.000000pt" height="44.000000pt" viewBox="0 0 300.000000 44.000000"
 preserveAspectRatio="xMidYMid meet">
<metadata>
Created by potrace 1.10, written by Peter Selinger 2001-2011
</metadata>
<g transform="translate(0.000000,44.000000) scale(0.100000,-0.100000)"
fill="#000000" stroke="none">
<path d="M2555 355 c-19 -9 -24 -14 -12 -14 15 -1 17 -13 17 -101 0 -84 -3
-101 -17 -109 -14 -8 -7 -10 31 -11 42 0 47 2 33 12 -13 11 -17 34 -19 125
l-3 111 -30 -13z"/>
<path d="M2815 354 c-18 -8 -23 -13 -12 -14 15 0 17 -12 17 -104 0 -113 2
-116 59 -116 31 0 66 33 76 70 13 53 -31 109 -75 95 -27 -8 -25 -23 2 -27 13
-2 29 -15 36 -31 23 -48 -11 -109 -53 -94 -14 6 -16 18 -13 67 1 33 1 60 -2
60 -3 0 -4 18 -2 39 6 63 2 70 -33 55z"/>
<path d="M48 350 c21 -9 22 -15 22 -110 0 -95 -1 -101 -22 -110 -17 -6 -7 -9
42 -9 49 0 59 3 43 9 -22 9 -23 15 -23 110 0 95 1 101 23 110 16 6 6 9 -43 9
-49 0 -59 -3 -42 -9z"/>
<path d="M520 345 c0 -8 9 -15 20 -15 11 0 20 7 20 15 0 8 -9 15 -20 15 -11 0
-20 -7 -20 -15z"/>
<path d="M1152 344 c-87 -44 -82 -177 8 -214 45 -19 127 -8 153 20 12 12 18
20 12 18 -5 -2 -27 -12 -49 -22 -23 -10 -49 -15 -66 -11 -99 22 -102 185 -4
209 32 8 90 -17 99 -43 10 -34 21 -24 17 17 l-4 37 -66 3 c-47 1 -77 -3 -100
-14z"/>
<path d="M1665 350 c-17 -7 -17 -9 -2 -9 13 -1 17 -10 17 -36 0 -33 -2 -35
-21 -25 -43 23 -109 -30 -109 -88 0 -35 38 -72 75 -72 19 0 37 5 41 11 4 7 9
8 13 1 7 -12 61 -4 61 9 0 5 -6 8 -12 6 -10 -1 -14 26 -16 106 -3 111 -5 115
-47 97z m4 -94 c7 -8 11 -36 9 -63 -3 -45 -5 -48 -33 -51 -19 -3 -33 2 -42 14
-16 22 -17 86 -1 102 16 16 53 15 67 -2z"/>
<path d="M1772 348 c7 -19 38 -22 38 -4 0 10 -9 16 -21 16 -12 0 -19 -5 -17
-12z"/>
<path d="M2344 326 c-29 -29 -34 -41 -34 -80 0 -85 39 -126 119 -126 36 0 99
35 87 48 -3 3 -15 -3 -26 -13 -12 -11 -36 -19 -57 -19 -51 0 -83 39 -83 102 0
103 92 148 141 68 l19 -31 0 40 0 41 -66 2 c-62 3 -67 1 -100 -32z"/>
<path d="M186 275 c-22 -9 -25 -13 -12 -18 24 -9 23 -112 -1 -126 -14 -8 -5
-10 37 -10 44 0 50 2 32 9 -21 9 -23 15 -20 67 l3 58 33 -3 c22 -1 32 2 32 12
0 21 -25 26 -48 10 -17 -12 -21 -12 -24 -1 -2 11 -9 11 -32 2z"/>
<path d="M520 275 c-31 -10 -32 -12 -12 -17 19 -5 22 -13 22 -62 0 -49 -3 -58
-22 -66 -18 -7 -11 -9 31 -9 46 -1 52 1 38 12 -12 9 -17 31 -19 83 l-3 71 -35
-12z"/>
<path d="M625 275 c-19 -9 -24 -14 -12 -14 14 -1 17 -11 17 -61 0 -46 -4 -61
-17 -69 -14 -8 -7 -10 32 -10 34 0 45 3 35 8 -11 7 -15 25 -14 62 0 41 5 55
21 66 18 12 23 12 37 -2 21 -22 21 -98 0 -119 -14 -15 -11 -16 33 -15 26 1 40
3 31 6 -15 4 -18 16 -18 69 0 56 -3 65 -24 79 -22 15 -27 15 -55 1 -25 -13
-30 -14 -33 -2 -3 12 -8 12 -33 1z"/>
<path d="M839 261 c-57 -57 -29 -141 46 -141 25 0 44 8 62 26 14 14 22 28 19
31 -3 4 -12 -1 -19 -10 -21 -28 -63 -31 -86 -8 -12 12 -21 30 -21 41 0 18 7
20 60 20 68 0 78 14 34 49 -36 28 -60 26 -95 -8z m71 5 c0 -2 3 -11 6 -20 5
-13 -2 -16 -35 -16 -42 0 -50 7 -29 28 11 11 58 17 58 8z"/>
<path d="M1399 275 c-55 -30 -59 -103 -7 -139 81 -57 180 45 116 118 -28 32
-74 41 -109 21z m75 -21 c21 -20 21 -97 1 -114 -21 -18 -60 -5 -73 25 -15 33
-15 78 0 93 17 17 54 15 72 -4z"/>
<path d="M1775 274 c-18 -8 -23 -13 -12 -14 14 0 17 -10 17 -60 0 -46 -4 -61
-17 -69 -14 -8 -7 -10 31 -11 42 0 47 2 33 13 -12 9 -17 31 -19 83 l-3 71 -30
-13z"/>
<path d="M1895 283 c-24 -6 -44 -23 -27 -23 17 0 16 -127 0 -133 -7 -3 10 -5
37 -5 28 0 42 2 33 5 -15 4 -18 16 -18 64 0 53 3 61 23 68 34 13 47 -5 47 -65
0 -40 -4 -56 -17 -63 -14 -8 -7 -10 32 -10 39 0 46 2 33 10 -14 8 -18 23 -18
69 0 52 -3 61 -25 76 -23 15 -27 15 -50 0 -30 -20 -36 -20 -29 -1 4 8 5 14 3
14 -2 -1 -13 -3 -24 -6z"/>
<path d="M2107 270 c-31 -25 -36 -64 -10 -79 16 -9 16 -11 -2 -31 -26 -28 -8
-40 63 -40 39 0 54 -4 59 -16 9 -24 -16 -35 -72 -32 -47 3 -50 5 -47 28 l3 25
-23 -22 c-20 -21 -21 -24 -6 -39 33 -34 148 -12 165 32 8 22 -16 44 -51 44
-45 0 -77 11 -73 24 2 6 15 10 27 8 37 -4 70 24 70 58 0 20 5 30 15 30 27 0
15 15 -12 16 -16 0 -39 4 -53 8 -19 5 -33 2 -53 -14z m61 -12 c7 -7 12 -25 12
-40 0 -23 -4 -28 -25 -28 -28 0 -52 37 -42 64 7 19 38 21 55 4z"/>
<path d="M2710 278 c0 -4 7 -8 15 -8 13 0 15 -13 14 -70 -1 -39 0 -73 3 -75 3
-3 16 -1 29 4 13 5 18 10 12 10 -9 1 -13 22 -13 70 l0 69 -30 4 c-16 3 -30 1
-30 -4z"/>
<path d="M312 266 c8 -7 27 -43 43 -79 17 -37 33 -67 36 -67 4 0 19 30 35 66
15 37 34 73 42 80 11 12 8 14 -20 14 -23 0 -29 -3 -19 -9 12 -8 11 -16 -5 -55
-10 -25 -21 -46 -24 -46 -3 0 -14 21 -24 46 -16 39 -17 47 -5 55 9 6 0 9 -29
9 -37 0 -41 -2 -30 -14z"/>
<path d="M2633 273 c14 -4 17 -16 17 -68 0 -68 13 -89 51 -83 30 4 36 25 7 24
-21 -1 -23 4 -26 67 l-3 67 -32 -1 c-18 -1 -24 -3 -14 -6z"/>
</g>
</svg>
